# xmcd
#
# Track frame offsets:
#	150
#	22580
#	42320
#	62640
#	81325
#	104950
#	129682
#	151800
#	167630
#	192630
#	215322
#	239307
#	259347
#
# Disc length: 3651 seconds
#
# Revision: 3
# Processed by: cddbd v1.5.2PL0 Copyright (c) Steve Scherf et al.
# Submitted via: audiograbber 1.83.01
#
DISCID=b50e410d
DTITLE=Tormé, Mel - An evening with Mel Tormé - Live from the Disney Institute
DYEAR=1996
DGENRE=Jazz
TTITLE0=Just one of those things - On Green Dolphin Street
TTITLE1=You make me feel so young
TTITLE2=A nightingale sang in Berkeley Square
TTITLE3=Pick yourself up
TTITLE4=Stardust
TTITLE5=Love for sale
TTITLE6=Since I fell for you
TTITLE7=Three little words (Slipped disc - Smooth one - Rachel's dream)
TTITLE8=I remember you - It's easy to remember
TTITLE9=Lover come back to me
TTITLE10=Stairway to the stars
TTITLE11=Oh, lady be good
TTITLE12=Ev'ry time we say goodbye
EXTD=
EXTT0=
EXTT1=
EXTT2=
EXTT3=
EXTT4=
EXTT5=
EXTT6=
EXTT7=
EXTT8=
EXTT9=
EXTT10=
EXTT11=
EXTT12=
PLAYORDER=
